<?xml version="1.0" encoding="utf-8"?>
<!-- Generator: Adobe Illustrator 28.4.1, SVG Export Plug-In . SVG Version: 6.00 Build 0)  -->
<svg version="1.1" id="Layer_1" xmlns="http://www.w3.org/2000/svg" xmlns:xlink="http://www.w3.org/1999/xlink" x="0px" y="0px"
	 viewBox="0 0 440.22 126.2" style="enable-background:new 0 0 440.22 126.2;" xml:space="preserve">
<style type="text/css">
	.st0{fill:#010101;}
	.st1{fill:#00AE42;}
</style>
<g>
	<g>
		<path class="st0" d="M350.22,62.27c-2.47,0-4.48,2.06-4.48,4.59s2.01,4.59,4.48,4.59c2.47,0,4.48-2.06,4.48-4.59
			S352.7,62.27,350.22,62.27 M245.85,34.61c3.26,0,5.9,2.71,5.9,6.06c0,3.35-2.64,6.06-5.9,6.06c-3.26,0-5.9-2.71-5.9-6.06
			C239.95,37.32,242.59,34.61,245.85,34.61 M234.06,41.03h-21.61l-9.15-17.72h-14.16v17.81c4.29,1.03,7.49,4.96,7.49,9.68
			c0,5.49-4.34,9.95-9.69,9.95c-5.35,0-9.69-4.46-9.69-9.95V23.32h-9.32v49.04h39.54V60.12l-9.07-16.94l0,0
			c-0.09-0.19-0.15-0.41-0.15-0.64c0-0.79,0.62-1.42,1.38-1.42c0.5,0,0.93,0.27,1.18,0.68l0,0v-0.01l9.8,18.34h47.04V23.32h-23.59
			V41.03z M380.87,60.12h9.32V10.77h-9.32V60.12z M365.97,41.03h-7.19V22.9h-9.32v18.13h-11.37V22.9h-9.32v10.37
			c1.86,0.55,3.23,2.32,3.23,4.41c0,2.54-2.01,4.59-4.48,4.59c-2.47,0-4.48-2.06-4.48-4.59V22.9h-9.32v10.37
			c1.86,0.55,3.22,2.32,3.22,4.41c0,2.54-2,4.59-4.48,4.59c-2.47,0-4.48-2.06-4.48-4.59V22.9h-9.32v10.2
			c1.95,0.2,3.48,1.9,3.48,3.96c0,2.06-1.52,3.75-3.48,3.95v0.02h-26.53V10.77h-9.32v49.36h112.48V10.77h-9.32V41.03z M183.66,74.53
			c-2.47,0-4.48,2.06-4.48,4.59c0,2.54,2.01,4.59,4.48,4.59c2.47,0,4.48-2.06,4.48-4.59C188.13,76.59,186.13,74.53,183.66,74.53
			 M196.22,74.53c-2.47,0-4.48,2.06-4.48,4.59c0,2.54,2,4.59,4.48,4.59c2.47,0,4.48-2.06,4.48-4.59
			C200.69,76.59,198.69,74.53,196.22,74.53"/>
		<path class="st0" d="M184.06,103.15l-2.89-8.54l-2.89,8.54H184.06z M179.19,87.32h3.92l11.38,28.18h-5.52l-2.93-7.29h-9.59
			l-3,7.29h-5.53L179.19,87.32z"/>
		<polygon class="st0" points="199.06,87.32 204.07,87.32 204.07,110.43 212.34,110.43 212.34,115.5 199.06,115.5 		"/>
		<path class="st0" d="M233.75,110.43c1.47,0,2.82-0.07,4.14-0.99c0.92-0.65,1.32-1.56,1.32-2.75c0-1.37-0.62-2.21-1.79-2.9
			c-1.13-0.61-2.34-0.57-3.55-0.57h-2.2v7.21H233.75z M232.61,98.15c1.06,0,2.45,0.04,3.4-0.42c0.95-0.45,1.54-1.52,1.54-2.59
			c0-1.14-0.7-2.06-1.68-2.48c-0.95-0.45-2.23-0.26-3.29-0.26h-0.91v5.76H232.61z M226.65,87.32h4.9c2.45,0,4.94-0.12,7.21,1.07
			c2.23,1.18,3.81,3.7,3.81,6.33c0,2.21-0.99,4.38-2.97,5.37c2.97,0.99,4.61,3.62,4.61,6.83c0,2.75-1.21,5.07-3.29,6.71
			c-2.16,1.64-4.9,1.8-7.5,1.87h-6.77V87.32z"/>
		<path class="st0" d="M263.61,103.15l-2.89-8.54l-2.89,8.54H263.61z M258.74,87.32h3.92l11.38,28.18h-5.52l-2.93-7.29H256l-3,7.29
			h-5.53L258.74,87.32z"/>
		<path class="st0" d="M281.87,107.57c0,2.25,1.76,3.55,3.77,3.55c1.9,0,3.52-1.49,3.52-3.55c0-3.09-2.49-4-4.72-4.77
			c-1.79-0.61-3.33-1.14-4.68-2.59c-1.32-1.41-2.12-3.47-2.12-5.42c0-4.61,3.66-8.01,7.98-8.01c4.17,0,7.94,3.59,7.91,8.01h-5.16
			c-0.07-1.75-1.46-2.94-3.04-2.94c-1.65,0-2.71,1.3-2.67,2.98c-0.04,2.06,1.79,2.86,3.4,3.43c1.9,0.69,3.73,1.26,5.27,2.6
			c1.94,1.6,2.85,3.66,2.85,6.41c0,5.04-3.99,8.92-8.78,8.92c-4.61,0-8.75-3.7-8.75-8.62H281.87z"/>
		<path class="st0" d="M302.72,107.57c0,2.25,1.76,3.55,3.77,3.55c1.9,0,3.52-1.49,3.52-3.55c0-3.09-2.49-4-4.72-4.77
			c-1.79-0.61-3.33-1.14-4.68-2.59c-1.32-1.41-2.12-3.47-2.12-5.42c0-4.61,3.66-8.01,7.98-8.01c4.17,0,7.94,3.59,7.91,8.01h-5.16
			c-0.07-1.75-1.46-2.94-3.04-2.94c-1.65,0-2.71,1.3-2.67,2.98c-0.04,2.06,1.79,2.86,3.4,3.43c1.9,0.69,3.73,1.26,5.27,2.6
			c1.94,1.6,2.85,3.66,2.85,6.41c0,5.04-3.99,8.92-8.78,8.92c-4.61,0-8.75-3.7-8.75-8.62H302.72z"/>
		<path class="st0" d="M334.23,103.15l-2.89-8.54l-2.89,8.54H334.23z M329.36,87.32h3.92l11.38,28.18h-5.53l-2.93-7.29h-9.59
			l-3,7.29h-5.53L329.36,87.32z"/>
		<polygon class="st0" points="349.23,87.32 356.08,87.32 363.32,108.87 370.68,87.32 377.49,87.32 377.49,115.5 372.47,115.5 
			372.47,94.38 365.48,115.5 361.24,115.5 354.25,94.38 354.25,115.5 349.23,115.5 		"/>
		<rect x="383.99" y="87.32" class="st0" width="5.02" height="28.18"/>
	</g>
	<g>
		<path class="st0" d="M105.31,54.12c-7.45,0-13.5-6.04-13.5-13.49c0-7.46,6.04-13.49,13.5-13.49c7.45,0,13.5,6.03,13.5,13.49
			C118.81,48.07,112.76,54.12,105.31,54.12 M105.31,9.99c-16.93,0-30.64,13.72-30.64,30.64c0,16.92,13.72,30.64,30.64,30.64
			c16.92,0,30.64-13.72,30.64-30.64C135.96,23.7,122.23,9.99,105.31,9.99"/>
		<path class="st1" d="M105.31,54.13c-4.74,0-8.58,3.84-8.58,8.58c0,4.73,3.84,8.57,8.58,8.57v0c7.45,0,13.5,6.04,13.5,13.49
			s-6.04,13.49-13.5,13.49c-7.45,0-13.5-6.04-13.5-13.49s6.04-13.49,13.5-13.49H94.17c-16.92,0-30.64-13.72-30.64-30.64
			c0-16.93,13.72-30.64,30.64-30.64H50.03v105.4h55.28c16.92,0,30.64-13.72,30.64-30.64S122.23,54.13,105.31,54.13"/>
	</g>
</g>
</svg>
